<?xml version="1.0" encoding="utf-8"?>
<!-- Generator: Adobe Illustrator 16.0.4, SVG Export Plug-In . SVG Version: 6.00 Build 0)  -->
<!DOCTYPE svg PUBLIC "-//W3C//DTD SVG 1.1//EN" "http://www.w3.org/Graphics/SVG/1.1/DTD/svg11.dtd">
<svg version="1.1" id="Layer_1" xmlns="http://www.w3.org/2000/svg" xmlns:xlink="http://www.w3.org/1999/xlink" x="0px" y="0px"
	 width="354.661px" height="79px" viewBox="0 0 354.661 79" enable-background="new 0 0 354.661 79" xml:space="preserve">
<path fill="#24A3D8" d="M52,43.721c1.674-0.669,3.045-1.652,4.112-2.95c1.15-1.611,1.727-3.725,1.727-6.34
	c0-2.763-0.67-4.783-2.008-6.519C55.076,26.928,53.81,26,52.032,25H57v-9H23.196h-0.321H16v49h7.196H23.03h21.323
	c2.219,0,3.944-0.137,5.096-0.346c1.736-0.335,3.222-0.998,4.414-1.96c1.465-1.194,2.5-2.53,3.086-3.995
	c0.585-1.465,0.884-2.953,0.884-4.459c0-2.262-0.468-4.314-1.41-6.155C55.482,46.348,54.008,44.892,52,43.721z M43.464,25
	c1.861,0,3.263,0.201,4.205,0.682c1.653,0.88,2.479,2.575,2.479,5.127c0,2.198-0.826,3.741-2.479,4.494
	C46.748,35.723,45.273,36,43.244,36H23V25H43.464z M47.856,55.227C47.02,55.646,45.953,56,44.657,56H23V45h20.244
	c1.528,0,2.835,0.165,3.923,0.648c2.05,0.939,3.075,2.681,3.075,5.149C50.242,52.932,49.448,54.432,47.856,55.227z"/>
<g>
	<path fill="#24A3D8" d="M88.687,26.022h11.929c3.251,0,5.564,0.964,6.938,2.892c0.806,1.14,1.209,2.454,1.209,3.945
		c0,1.74-0.495,3.167-1.483,4.282c-0.514,0.588-1.253,1.126-2.216,1.615c1.414,0.539,2.473,1.146,3.173,1.822
		c1.24,1.202,1.86,2.861,1.86,4.977c0,1.778-0.562,3.388-1.682,4.827c-1.676,2.153-4.34,3.23-7.993,3.23H88.687V26.022z
		 M99.219,37.685c1.594,0,2.834-0.219,3.719-0.658c1.392-0.688,2.088-1.928,2.088-3.718c0-1.803-0.74-3.018-2.22-3.644
		c-0.835-0.35-2.075-0.526-3.72-0.526h-6.737v8.546H99.219z M100.482,50.418c2.312,0,3.962-0.663,4.948-1.99
		c0.62-0.839,0.929-1.854,0.929-3.043c0-2.003-0.904-3.368-2.711-4.094c-0.961-0.388-2.23-0.583-3.811-0.583h-7.488v9.709H100.482z"
		/>
	<path fill="#24A3D8" d="M117.364,33.497V46.85c0,1.027,0.159,1.865,0.477,2.517c0.585,1.202,1.676,1.804,3.273,1.804
		c2.292,0,3.853-1.052,4.683-3.156c0.451-1.127,0.677-2.672,0.677-4.639v-9.878h3.38v20.114h-3.192l0.038-2.969
		c-0.43,0.766-0.965,1.41-1.604,1.936c-1.266,1.051-2.801,1.578-4.607,1.578c-2.814,0-4.73-0.958-5.75-2.873
		c-0.553-1.027-0.829-2.398-0.829-4.113V33.497H117.364z"/>
	<path fill="#24A3D8" d="M146.427,34.117c0.599,0.375,1.278,1.033,2.039,1.972V25.928h3.249v27.683h-3.042v-2.799
		c-0.786,1.24-1.716,2.135-2.788,2.686c-1.073,0.551-2.302,0.826-3.686,0.826c-2.233,0-4.166-0.941-5.799-2.826
		c-1.634-1.885-2.451-4.392-2.451-7.521c0-2.93,0.745-5.468,2.235-7.616c1.491-2.147,3.621-3.221,6.389-3.221
		C144.107,33.14,145.391,33.466,146.427,34.117z M138.881,49.197c0.91,1.453,2.367,2.179,4.373,2.179
		c1.557,0,2.837-0.673,3.84-2.019s1.504-3.277,1.504-5.794c0-2.542-0.517-4.423-1.551-5.644c-1.034-1.22-2.311-1.831-3.831-1.831
		c-1.694,0-3.068,0.651-4.12,1.953c-1.052,1.302-1.579,3.218-1.579,5.747C137.517,45.942,137.972,47.746,138.881,49.197z"/>
	<path fill="#24A3D8" d="M167.949,34.305c0.636,0.438,1.284,1.077,1.945,1.916v-2.536h3.117v18.292c0,2.555-0.373,4.57-1.123,6.049
		c-1.396,2.729-4.037,4.094-7.917,4.094c-2.158,0-3.974-0.485-5.447-1.456c-1.473-0.971-2.296-2.489-2.471-4.554h3.437
		c0.162,0.9,0.485,1.596,0.973,2.084c0.758,0.752,1.954,1.127,3.585,1.127c2.578,0,4.265-0.914,5.062-2.742
		c0.473-1.076,0.691-2.998,0.653-5.766c-0.674,1.026-1.483,1.791-2.433,2.291c-0.947,0.502-2.201,0.751-3.76,0.751
		c-2.169,0-4.069-0.772-5.696-2.319c-1.627-1.545-2.441-4.104-2.441-7.672c0-3.368,0.819-5.997,2.459-7.887
		c1.64-1.891,3.622-2.836,5.941-2.836C165.404,33.14,166.777,33.528,167.949,34.305z M168.363,37.929
		c-1.022-1.202-2.323-1.803-3.905-1.803c-2.366,0-3.987,1.114-4.858,3.343c-0.461,1.189-0.691,2.749-0.691,4.677
		c0,2.266,0.458,3.99,1.373,5.174c0.917,1.182,2.146,1.774,3.69,1.774c2.417,0,4.116-1.097,5.101-3.287
		c0.55-1.239,0.822-2.685,0.822-4.337C169.895,40.978,169.385,39.131,168.363,37.929z"/>
	<path fill="#24A3D8" d="M190.582,34.051c1.331,0.67,2.346,1.537,3.043,2.602c0.672,1.013,1.118,2.197,1.343,3.549
		c0.2,0.927,0.3,2.404,0.3,4.434h-14.63c0.062,2.045,0.54,3.688,1.434,4.924c0.895,1.237,2.28,1.855,4.155,1.855
		c1.752,0,3.148-0.586,4.193-1.755c0.585-0.679,0.998-1.466,1.241-2.358h3.325c-0.088,0.738-0.38,1.562-0.875,2.47
		c-0.494,0.907-1.045,1.649-1.654,2.226c-1.019,1.002-2.28,1.677-3.784,2.027c-0.807,0.201-1.721,0.301-2.739,0.301
		c-2.488,0-4.599-0.91-6.326-2.732c-1.73-1.821-2.595-4.372-2.595-7.653c0-3.23,0.87-5.853,2.612-7.868s4.021-3.024,6.832-3.024
		C187.877,33.046,189.25,33.381,190.582,34.051z M191.793,41.947c-0.137-1.463-0.453-2.635-0.95-3.511
		c-0.919-1.627-2.452-2.441-4.6-2.441c-1.539,0-2.831,0.561-3.874,1.682c-1.042,1.12-1.596,2.544-1.656,4.271H191.793z"/>
	<path fill="#24A3D8" d="M200.226,27.882h3.419v5.615h3.211v2.761h-3.211v13.127c0,0.702,0.236,1.172,0.713,1.409
		c0.263,0.138,0.701,0.206,1.314,0.206c0.164,0,0.339-0.004,0.526-0.012s0.407-0.029,0.657-0.062v2.686
		c-0.387,0.113-0.793,0.193-1.211,0.243c-0.42,0.05-0.873,0.075-1.363,0.075c-1.577,0-2.647-0.403-3.211-1.211
		c-0.562-0.807-0.845-1.855-0.845-3.146V36.258h-2.724v-2.761h2.724V27.882z"/>
	<path fill="#24A3D8" d="M235.797,33.216c0.877,0.35,1.67,0.964,2.384,1.84c0.577,0.713,0.966,1.59,1.166,2.629
		c0.122,0.688,0.188,1.696,0.188,3.023l-0.036,12.903h-5.485V40.577c0-0.776-0.127-1.415-0.376-1.916
		c-0.477-0.951-1.352-1.427-2.63-1.427c-1.476,0-2.497,0.614-3.06,1.84c-0.29,0.652-0.433,1.434-0.433,2.348v12.189h-5.391V41.422
		c0-1.214-0.125-2.096-0.375-2.648c-0.45-0.989-1.333-1.483-2.649-1.483c-1.525,0-2.554,0.494-3.079,1.483
		c-0.288,0.563-0.431,1.403-0.431,2.517v12.32h-5.429V33.178h5.203v2.986c0.662-1.064,1.288-1.821,1.877-2.272
		c1.039-0.801,2.385-1.202,4.037-1.202c1.565,0,2.83,0.345,3.795,1.033c0.775,0.638,1.364,1.459,1.766,2.46
		c0.7-1.202,1.57-2.085,2.608-2.648c1.103-0.563,2.331-0.845,3.683-0.845C234.031,32.689,234.92,32.865,235.797,33.216z"/>
	<path fill="#24A3D8" d="M257.795,33.554c1.427,0.64,2.606,1.65,3.538,3.029c0.837,1.217,1.382,2.627,1.63,4.232
		c0.145,0.941,0.203,2.294,0.177,4.063h-14.91c0.084,2.054,0.796,3.494,2.142,4.319c0.817,0.514,1.8,0.77,2.95,0.77
		c1.221,0,2.211-0.312,2.972-0.938c0.415-0.337,0.783-0.808,1.102-1.407h5.465c-0.143,1.213-0.805,2.447-1.984,3.699
		c-1.833,1.99-4.4,2.986-7.701,2.986c-2.724,0-5.128-0.84-7.211-2.52c-2.082-1.68-3.123-4.41-3.123-8.195
		c0-3.546,0.94-6.266,2.818-8.158c1.882-1.893,4.321-2.838,7.322-2.838C254.762,32.596,256.367,32.916,257.795,33.554z
		 M249.788,38.179c-0.758,0.78-1.232,1.836-1.426,3.169h9.22c-0.097-1.421-0.572-2.5-1.426-3.235
		c-0.854-0.736-1.911-1.104-3.174-1.104C251.608,37.009,250.545,37.399,249.788,38.179z"/>
	<path fill="#24A3D8" d="M279.187,33.554c1.427,0.64,2.606,1.65,3.537,3.029c0.839,1.217,1.383,2.627,1.631,4.232
		c0.146,0.941,0.203,2.294,0.176,4.063h-14.909c0.083,2.054,0.796,3.494,2.141,4.319c0.818,0.514,1.801,0.77,2.952,0.77
		c1.22,0,2.209-0.312,2.972-0.938c0.414-0.337,0.782-0.808,1.102-1.407h5.465c-0.145,1.213-0.806,2.447-1.985,3.699
		c-1.833,1.99-4.399,2.986-7.7,2.986c-2.724,0-5.128-0.84-7.212-2.52c-2.081-1.68-3.123-4.41-3.123-8.195
		c0-3.546,0.939-6.266,2.819-8.158c1.881-1.893,4.32-2.838,7.321-2.838C276.153,32.596,277.759,32.916,279.187,33.554z
		 M271.18,38.179c-0.757,0.78-1.232,1.836-1.426,3.169h9.22c-0.097-1.421-0.571-2.5-1.426-3.235
		c-0.854-0.736-1.911-1.104-3.174-1.104C273,37.009,271.935,37.399,271.18,38.179z"/>
	<path fill="#24A3D8" d="M291.388,47.075c0.112,0.952,0.358,1.628,0.735,2.028c0.668,0.714,1.9,1.07,3.699,1.07
		c1.056,0,1.896-0.156,2.52-0.47c0.622-0.312,0.934-0.782,0.934-1.407c0-0.602-0.251-1.059-0.753-1.372
		c-0.501-0.313-2.369-0.851-5.6-1.614c-2.326-0.576-3.966-1.297-4.915-2.16c-0.952-0.852-1.428-2.079-1.428-3.681
		c0-1.89,0.742-3.515,2.23-4.873c1.485-1.359,3.579-2.038,6.276-2.038c2.56,0,4.646,0.51,6.257,1.53
		c1.612,1.02,2.538,2.783,2.776,5.287h-5.353c-0.075-0.688-0.27-1.233-0.583-1.634c-0.59-0.726-1.595-1.089-3.013-1.089
		c-1.169,0-2,0.181-2.497,0.544c-0.495,0.363-0.743,0.789-0.743,1.277c0,0.614,0.265,1.059,0.791,1.333
		c0.527,0.288,2.39,0.782,5.588,1.484c2.133,0.501,3.732,1.258,4.796,2.272c1.052,1.026,1.579,2.31,1.579,3.851
		c0,2.027-0.758,3.684-2.271,4.967c-1.512,1.283-3.849,1.926-7.009,1.926c-3.225,0-5.605-0.68-7.141-2.038
		c-1.539-1.358-2.307-3.089-2.307-5.193H291.388z"/>
	<path fill="#24A3D8" d="M306.524,37.141v-3.813h2.854v-5.709h5.297v5.709H318v3.813h-3.324v10.817c0,0.839,0.106,1.362,0.318,1.567
		c0.214,0.207,0.864,0.311,1.954,0.311c0.162,0,0.335-0.002,0.517-0.009s0.359-0.016,0.535-0.028v4l-2.535,0.094
		c-2.53,0.088-4.257-0.35-5.183-1.314c-0.603-0.613-0.903-1.559-0.903-2.836V37.141H306.524z"/>
	<path fill="#24A3D8" d="M334.777,33.554c1.427,0.64,2.607,1.65,3.536,3.029c0.84,1.217,1.383,2.627,1.631,4.232
		c0.145,0.941,0.203,2.294,0.177,4.063h-14.909c0.082,2.054,0.797,3.494,2.14,4.319c0.819,0.514,1.803,0.77,2.952,0.77
		c1.22,0,2.21-0.312,2.973-0.938c0.415-0.337,0.782-0.808,1.101-1.407h5.466c-0.145,1.213-0.806,2.447-1.985,3.699
		c-1.833,1.99-4.399,2.986-7.7,2.986c-2.725,0-5.128-0.84-7.211-2.52s-3.124-4.41-3.124-8.195c0-3.546,0.938-6.266,2.819-8.158
		c1.881-1.893,4.32-2.838,7.321-2.838C331.744,32.596,333.35,32.916,334.777,33.554z M326.771,38.179
		c-0.757,0.78-1.233,1.836-1.427,3.169h9.221c-0.097-1.421-0.572-2.5-1.426-3.235c-0.854-0.736-1.912-1.104-3.175-1.104
		C328.591,37.009,327.525,37.399,326.771,38.179z"/>
	<path fill="#24A3D8" d="M354.201,32.661c0.068,0.007,0.222,0.016,0.46,0.028v5.484c-0.338-0.038-0.639-0.062-0.901-0.075
		c-0.263-0.012-0.477-0.018-0.64-0.018c-2.153,0-3.599,0.701-4.337,2.103c-0.414,0.789-0.621,2.002-0.621,3.643v9.785h-5.391V33.14
		h5.109v3.568c0.827-1.365,1.546-2.297,2.16-2.798c1-0.838,2.304-1.259,3.906-1.259C354.047,32.651,354.132,32.655,354.201,32.661z"
		/>
</g>
<rect x="3.5" y="3.5" fill="none" stroke="#24A3D8" stroke-width="7" stroke-miterlimit="10" width="67" height="72"/>
</svg>
